<svg width="121" height="44" viewBox="0 0 121 44" fill="none" xmlns="http://www.w3.org/2000/svg">
<g clip-path="url(#clip0_39_547)">
<path d="M40.7143 19.9856L37.0057 11.6892H35.9287L40.2527 21.3851H41.1334L45.4574 11.6892H44.4175L40.7143 19.9856Z" fill="#231F20"/>
<path d="M53.2246 12.2565C52.4345 11.8303 51.5492 11.6114 50.6514 11.6203C49.7536 11.6082 48.8683 11.8312 48.0836 12.2671C47.3306 12.6796 46.705 13.2901 46.2744 14.0324C45.843 14.7968 45.6163 15.6596 45.6163 16.5372C45.6163 17.4148 45.843 18.2776 46.2744 19.042C46.7077 19.7822 47.3327 20.392 48.0836 20.8073C48.8753 21.2269 49.7579 21.4463 50.6541 21.4463C51.5503 21.4463 52.4328 21.2269 53.2246 20.8073C53.9772 20.3967 54.6028 19.7881 55.0338 19.0473C55.465 18.278 55.6915 17.411 55.6915 16.5293C55.6915 15.6475 55.465 14.7805 55.0338 14.0112C54.6006 13.2736 53.9753 12.6672 53.2246 12.2565ZM50.6514 20.5211C49.9274 20.5266 49.2143 20.3439 48.5823 19.9909C47.9741 19.6556 47.4709 19.1583 47.1286 18.5543C46.7733 17.9332 46.5901 17.2287 46.598 16.5134C46.5877 15.7994 46.771 15.0959 47.1286 14.4777C47.4723 13.8762 47.9753 13.3809 48.5823 13.0464C49.2176 12.7053 49.9276 12.5268 50.6488 12.5268C51.37 12.5268 52.0799 12.7053 52.7153 13.0464C53.3196 13.3826 53.8205 13.8776 54.1637 14.4777C54.5117 15.1008 54.6944 15.8025 54.6944 16.516C54.6944 17.2296 54.5117 17.9312 54.1637 18.5543C53.8202 19.1528 53.3193 19.646 52.7153 19.9803C52.0864 20.3377 51.3748 20.5242 50.6514 20.5211Z" fill="#231F20"/>
<path d="M58.753 11.6892H57.7715V21.3851H64.1699V20.468H58.753V11.6892Z" fill="#231F20"/>
<path d="M72.213 17.2184C72.2827 18.1138 72.0139 19.0029 71.4596 19.7099C70.8536 20.2326 70.0796 20.5202 69.2791 20.5202C68.4785 20.5202 67.7045 20.2326 67.0985 19.7099C66.5442 19.0029 66.2754 18.1138 66.3451 17.2184V11.6892H65.3636V17.2449C65.2853 18.3817 65.6546 19.5041 66.3929 20.3726C67.1929 21.0667 68.2169 21.4488 69.2764 21.4488C70.3359 21.4488 71.3599 21.0667 72.1599 20.3726C72.9116 19.5101 73.2929 18.3863 73.221 17.2449V11.6892H72.2395L72.213 17.2184Z" fill="#231F20"/>
<path d="M83.068 19.5668L76.9401 11.7475L76.8924 11.6892H76.0966V21.3851H77.0781V13.5022L83.2643 21.3851H84.0495V11.6892H83.068V19.5668Z" fill="#231F20"/>
<path d="M85.4448 12.601H88.8297V21.3851H89.8112V12.601H93.1961V11.6892H85.4448V12.601Z" fill="#231F20"/>
<path d="M95.5783 16.9109H100.587V16.0097H95.5783V12.601H101.181V11.6892H94.5915V21.3851H101.383V20.468H95.5783V16.9109Z" fill="#231F20"/>
<path d="M104.566 16.9109H109.574V16.0097H104.566V12.601H110.163V11.6892H103.579V21.3851H110.365V20.468H104.566V16.9109Z" fill="#231F20"/>
<path d="M117.914 18.0242C118.512 17.8278 119.038 17.4589 119.426 16.9639C119.838 16.3942 120.048 15.7045 120.026 15.0025C120.049 14.541 119.965 14.0805 119.781 13.6567C119.597 13.2328 119.318 12.8571 118.965 12.5586C118.14 11.9358 117.121 11.6258 116.089 11.6839H112.566V21.3798H113.537V18.3104H116.079C116.361 18.308 116.643 18.2886 116.922 18.2521L119.156 21.3798H120.302L117.914 18.0242ZM113.537 12.6063H116.079C116.877 12.5497 117.668 12.779 118.312 13.2531C118.564 13.4725 118.761 13.7469 118.889 14.0549C119.017 14.3629 119.072 14.6962 119.05 15.029C119.068 15.3574 119.011 15.6857 118.883 15.9888C118.756 16.292 118.56 16.562 118.312 16.7784C117.675 17.2396 116.896 17.4628 116.111 17.4092H113.537V12.6063Z" fill="#231F20"/>
<path d="M40.7143 32.8463L36.9102 24.3379H36.1569L40.3482 33.7316H41.0326L45.2239 24.3379H44.513L40.7143 32.8463Z" fill="#231F20"/>
<path d="M50.2483 24.3379H49.5638V33.7316H50.2483V24.3379Z" fill="#231F20"/>
<path d="M58.2012 25.4457C58.8526 25.093 59.5826 24.9107 60.3234 24.9156C60.8557 24.8964 61.3863 24.9851 61.8832 25.1764C62.3802 25.3678 62.8332 25.6577 63.2149 26.0289L63.6447 25.5889C63.2382 25.1555 62.7371 24.8216 62.1803 24.6134C61.5779 24.3898 60.9395 24.2784 60.2969 24.2848C59.437 24.2718 58.5879 24.4779 57.8298 24.8838C57.1028 25.2826 56.499 25.873 56.0843 26.5908C55.6637 27.3367 55.4426 28.1784 55.4426 29.0346C55.4426 29.8908 55.6637 30.7326 56.0843 31.4785C56.4994 32.1946 57.1031 32.7832 57.8298 33.1802C58.5913 33.5994 59.4489 33.8132 60.3181 33.8004C60.96 33.8071 61.5973 33.692 62.1963 33.4611C62.7542 33.2523 63.2569 32.9186 63.6659 32.4857L63.2361 32.0404C62.8558 32.4144 62.4033 32.7073 61.9063 32.9014C61.4093 33.0955 60.878 33.1867 60.3446 33.1696C59.6036 33.1768 58.8729 32.9943 58.2225 32.6395C57.59 32.2955 57.0649 31.7836 56.7051 31.1604C56.3412 30.5128 56.15 29.7826 56.15 29.0399C56.15 28.2973 56.3412 27.567 56.7051 26.9195C57.062 26.3027 57.5789 25.7935 58.2012 25.4457Z" fill="#231F20"/>
<path d="M67.0825 24.9528H70.4674V33.7316H71.1518V24.9528H74.5367V24.3379H67.0825V24.9528Z" fill="#231F20"/>
<path d="M85.4183 24.884C84.6517 24.4689 83.7913 24.2571 82.9194 24.269C82.0405 24.2601 81.1749 24.4832 80.4099 24.9158C79.6807 25.3178 79.0739 25.9094 78.6538 26.6281C78.2364 27.3693 78.0172 28.2055 78.0172 29.056C78.0172 29.9065 78.2364 30.7427 78.6538 31.484C79.0739 32.2026 79.6807 32.7943 80.4099 33.1963C81.1738 33.6196 82.0354 33.8353 82.9088 33.8218C83.7869 33.8298 84.6519 33.6087 85.4183 33.1804C86.1465 32.7835 86.752 32.195 87.1691 31.4787C87.5864 30.7316 87.8054 29.8903 87.8054 29.0348C87.8054 28.1793 87.5864 27.338 87.1691 26.591C86.7523 25.873 86.1469 25.2827 85.4183 24.884ZM86.559 31.15C86.2016 31.7714 85.6804 32.283 85.0522 32.629C84.4034 32.988 83.6717 33.1708 82.93 33.1592C82.1887 33.1688 81.4575 32.9861 80.8079 32.629C80.177 32.2847 79.6538 31.7728 79.2958 31.15C78.9319 30.5024 78.7407 29.7722 78.7407 29.0295C78.7407 28.2868 78.9319 27.5566 79.2958 26.909C79.6549 26.2858 80.1778 25.7725 80.8079 25.4247C81.4583 25.0698 82.189 24.8873 82.93 24.8946C83.6714 24.8849 84.4026 25.0676 85.0522 25.4247C85.6795 25.7743 86.2002 26.2873 86.559 26.909C86.9229 27.5566 87.114 28.2868 87.114 29.0295C87.114 29.7722 86.9229 30.5024 86.559 31.15Z" fill="#231F20"/>
<path d="M99.584 29.374C99.9782 28.8314 100.18 28.1728 100.157 27.5027C100.18 27.0634 100.1 26.6249 99.9255 26.2212C99.7506 25.8176 99.4849 25.4597 99.1489 25.1755C98.3513 24.575 97.3657 24.2781 96.3689 24.3379H92.9946V33.7316H93.679V30.6569H96.3689C96.6741 30.655 96.9789 30.6338 97.2814 30.5933L99.5256 33.7316H100.306L97.9552 30.4449C98.6024 30.2792 99.1756 29.9023 99.584 29.374ZM96.3689 30.0526H93.679V24.9528H96.3689C97.194 24.8942 98.0133 25.1289 98.682 25.6155C98.9323 25.862 99.131 26.1559 99.2666 26.4798C99.4022 26.8038 99.4721 27.1515 99.4721 27.5027C99.4721 27.8539 99.4022 28.2015 99.2666 28.5255C99.131 28.8495 98.9323 29.1433 98.682 29.3899C98.0144 29.8786 97.1942 30.1135 96.3689 30.0526Z" fill="#231F20"/>
<path d="M106.173 24.3379H105.489V33.7316H106.173V24.3379Z" fill="#231F20"/>
<path d="M115.713 24.3379H115.028L110.704 33.7316H111.442L112.635 31.081H118.09L119.299 33.7316H120.037L115.713 24.3379ZM112.906 30.5085L115.363 25.0854L117.835 30.5085H112.906Z" fill="#231F20"/>
<path d="M18.0387 9.31422C20.4421 9.31422 22.3892 7.23084 22.3892 4.65446C22.3892 2.07807 20.4474 0 18.0387 0C16.8425 0.0401293 15.711 0.552677 14.8924 1.42523C14.0739 2.29778 13.6351 3.45909 13.6723 4.65446C13.6336 5.85073 14.0718 7.01341 14.8905 7.88711C15.7092 8.76082 16.8415 9.2741 18.0387 9.31422Z" fill="url(#paint0_linear_39_547)"/>
<path d="M18.0387 17.653L0 0L18.0333 43.9841V44L18.0387 43.9894L18.044 44V43.9841L36.0773 0L18.0387 17.653Z" fill="url(#paint1_linear_39_547)"/>
</g>
<defs>
<linearGradient id="paint0_linear_39_547" x1="13.8049" y1="3.5253" x2="22.2662" y2="5.79233" gradientUnits="userSpaceOnUse">
<stop offset="0.19" stop-color="#27AAE1"/>
<stop offset="0.32" stop-color="#27A1DB"/>
<stop offset="0.52" stop-color="#2889C9"/>
<stop offset="0.78" stop-color="#2A61AD"/>
<stop offset="1" stop-color="#2B3990"/>
</linearGradient>
<linearGradient id="paint1_linear_39_547" x1="-3.69262" y1="13.7672" x2="29.967" y2="22.7929" gradientUnits="userSpaceOnUse">
<stop offset="0.19" stop-color="#27AAE1"/>
<stop offset="0.32" stop-color="#27A1DB"/>
<stop offset="0.52" stop-color="#2889C9"/>
<stop offset="0.78" stop-color="#2A61AD"/>
<stop offset="1" stop-color="#2B3990"/>
</linearGradient>
<clipPath id="clip0_39_547">
<rect width="120.312" height="44" fill="white"/>
</clipPath>
</defs>
</svg>
